<svg width="24" height="24" viewBox="0 0 24 24" fill="none" xmlns="http://www.w3.org/2000/svg">
<circle cx="12" cy="12" r="12" fill="#EBEDF0"/>
<path d="M9.55035 11.2773C9.54823 11.7834 9.55035 12.2895 9.55249 12.7957C10.401 12.8233 11.2517 12.8106 12.1002 12.8233C11.726 14.7054 9.16546 15.3158 7.81077 14.0866C6.41779 13.0084 6.48372 10.6435 7.93199 9.64187C8.94428 8.83374 10.384 9.03363 11.3963 9.73331C11.794 9.36541 12.1661 8.97197 12.5255 8.56365C11.6834 7.89163 10.6498 7.41313 9.55035 7.46418C7.2557 7.38761 5.14605 9.3973 5.10778 11.692C4.96103 13.5677 6.1945 15.4072 7.93625 16.0708C9.67159 16.7385 11.8961 16.2834 13.0041 14.7246C13.7356 13.7399 13.893 12.4725 13.8079 11.2815C12.3873 11.2709 10.9688 11.273 9.55035 11.2773Z" fill="#6D747A"/>
<path d="M17.8485 11.271C17.8442 10.8478 17.8421 10.4225 17.84 9.99927C17.4168 9.99927 16.9957 9.99927 16.5746 9.99927C16.5704 10.4225 16.5661 10.8457 16.564 11.271C16.1386 11.2731 15.7154 11.2753 15.2922 11.2795C15.2922 11.7027 15.2922 12.1238 15.2922 12.5449C15.7154 12.5492 16.1408 12.5534 16.564 12.5576C16.5682 12.9809 16.5682 13.4041 16.5725 13.8273C16.9957 13.8273 17.4168 13.8273 17.84 13.8273C17.8421 13.4041 17.8442 12.9809 17.8485 12.5555C18.2738 12.5513 18.697 12.5492 19.1202 12.5449C19.1202 12.1238 19.1202 11.7006 19.1202 11.2795C18.697 11.2753 18.2717 11.2753 17.8485 11.271Z" fill="#6D747A"/>
</svg>
