<svg width="16" height="16" viewBox="0 0 16 16" fill="none" xmlns="http://www.w3.org/2000/svg">
<g clip-path="url(#clip0_1_4646)">
<path d="M11.8194 5.33332H11.1628V3.99999C11.1628 2.15999 9.69193 0.666656 7.8796 0.666656C6.06727 0.666656 4.59639 2.15999 4.59639 3.99999V5.33332H3.93975C3.21744 5.33332 2.62646 5.93332 2.62646 6.66666V13.3333C2.62646 14.0667 3.21744 14.6667 3.93975 14.6667H11.8194C12.5418 14.6667 13.1327 14.0667 13.1327 13.3333V6.66666C13.1327 5.93332 12.5418 5.33332 11.8194 5.33332ZM7.8796 11.3333C7.15729 11.3333 6.56631 10.7333 6.56631 9.99999C6.56631 9.26666 7.15729 8.66666 7.8796 8.66666C8.6019 8.66666 9.19288 9.26666 9.19288 9.99999C9.19288 10.7333 8.6019 11.3333 7.8796 11.3333ZM5.90967 5.33332V3.99999C5.90967 2.89332 6.78957 1.99999 7.8796 1.99999C8.96962 1.99999 9.84952 2.89332 9.84952 3.99999V5.33332H5.90967Z" fill="#939CA3"/>
</g>
<defs>
<clipPath id="clip0_1_4646">
<rect width="15.7594" height="16" fill="white"/>
</clipPath>
</defs>
</svg>
