<svg width="40" height="40" viewBox="0 0 40 40" fill="none" xmlns="http://www.w3.org/2000/svg">
<g clip-path="url(#clip0_1_3886)">
<path d="M28.6834 14.9997L21.3834 4.06635C21.0667 3.59968 20.5334 3.36635 20.0001 3.36635C19.4667 3.36635 18.9334 3.59968 18.6167 4.08302L11.3167 14.9997H3.33341C2.41675 14.9997 1.66675 15.7497 1.66675 16.6663C1.66675 16.8163 1.68341 16.9663 1.73341 17.1163L5.96675 32.5664C6.35008 33.9664 7.63341 34.9997 9.16675 34.9997H30.8334C32.3667 34.9997 33.6501 33.9664 34.0501 32.5664L38.2834 17.1163L38.3334 16.6663C38.3334 15.7497 37.5834 14.9997 36.6667 14.9997H28.6834ZM15.0001 14.9997L20.0001 7.66635L25.0001 14.9997H15.0001ZM20.0001 28.333C18.1667 28.333 16.6667 26.833 16.6667 24.9997C16.6667 23.1663 18.1667 21.6663 20.0001 21.6663C21.8334 21.6663 23.3334 23.1663 23.3334 24.9997C23.3334 26.833 21.8334 28.333 20.0001 28.333Z" fill="#C0504D"/>
</g>
<defs>
<clipPath id="clip0_1_3886">
<rect width="40" height="40" fill="white"/>
</clipPath>
</defs>
</svg>
